# xmcd CD database file
#
# Track frame offsets:
#	150
#	23545
#	50573
#	75218
#	95332
#	114816
#	152672
#	195153
#	228939
#	259897
#	291152
#
# Disc length: 4322 seconds
#
# Revision: 0
# Processed by: cddbd v1.5.2PL0 Copyright (c) Steve Scherf et al.
# Submitted via: CDex 1.70beta2
#
DISCID=7610e00b
DTITLE=Various Artist - The Best of Polish Smooth Jazz Vol.3 - CD 3
DYEAR=2006
DGENRE=Jazz
TTITLE0=Piotr Wojtasik - Decision
TTITLE1=Krzysztof Herdzin Quartet - Being Confused
TTITLE2=Robert Majewski - Coś na kwintet
TTITLE3=Maciej Strzelczyk - Wave
TTITLE4=Adam Wendt - Hi, My Happiness
TTITLE5=Cezary Paciorek - Proście o pokój
TTITLE6=Piotr Baron - St. Louis Blues
TTITLE7=Filip Sojka - Jest nas troje
TTITLE8=Andrzej Jagodziński Trio - Prelude in E minor
TTITLE9=Karol Szymanowski Trio - Sześcił
TTITLE10=Włodzimierz Nahorny - Marsz lwowskich dzieci
EXTD=YEAR: 2006
EXTT0=
EXTT1=
EXTT2=
EXTT3=
EXTT4=
EXTT5=
EXTT6=
EXTT7=
EXTT8=
EXTT9=
EXTT10=
PLAYORDER=
